<?xml version="1.0" encoding="UTF-8" standalone="no"?>
<svg
   xmlns:dc="http://purl.org/dc/elements/1.1/"
   xmlns:cc="http://creativecommons.org/ns#"
   xmlns:rdf="http://www.w3.org/1999/02/22-rdf-syntax-ns#"
   xmlns:svg="http://www.w3.org/2000/svg"
   xmlns="http://www.w3.org/2000/svg"
   xmlns:sodipodi="http://sodipodi.sourceforge.net/DTD/sodipodi-0.dtd"
   xmlns:inkscape="http://www.inkscape.org/namespaces/inkscape"
   width="7.8000002in"
   height="2.3in"
   viewBox="0 0 701.99995 207"
   version="1.1"
   id="svg2"
   inkscape:version="0.91 r13725"
   sodipodi:docname="scipipe12.graph_text.horiz.svg"
   inkscape:export-filename="/home/samuel/proj/farmbio/2019/scipipe-logo/scipipe12.graph_text.png"
   inkscape:export-xdpi="599.9892"
   inkscape:export-ydpi="599.9892">
  <metadata
     id="metadata32">
    <rdf:RDF>
      <cc:Work
         rdf:about="">
        <dc:format>image/svg+xml</dc:format>
        <dc:type
           rdf:resource="http://purl.org/dc/dcmitype/StillImage" />
        <dc:title>Group 5</dc:title>
      </cc:Work>
    </rdf:RDF>
  </metadata>
  <defs
     id="defs30" />
  <sodipodi:namedview
     pagecolor="#ffffff"
     bordercolor="#666666"
     borderopacity="1"
     objecttolerance="10"
     gridtolerance="10"
     guidetolerance="10"
     inkscape:pageopacity="1"
     inkscape:pageshadow="2"
     inkscape:window-width="1920"
     inkscape:window-height="1031"
     id="namedview28"
     showgrid="false"
     inkscape:zoom="0.90509668"
     inkscape:cx="475.26677"
     inkscape:cy="95.422253"
     inkscape:window-x="0"
     inkscape:window-y="25"
     inkscape:window-maximized="1"
     inkscape:current-layer="g4168"
     showguides="true"
     inkscape:guide-bbox="true"
     inkscape:snap-bbox="true"
     inkscape:snap-object-midpoints="true"
     inkscape:snap-others="true"
     inkscape:snap-bbox-midpoints="true"
     inkscape:snap-bbox-edge-midpoints="true"
     units="ft">
    <inkscape:grid
       type="xygrid"
       id="grid4292" />
    <sodipodi:guide
       position="108.39843,267.48046"
       orientation="1,0"
       id="guide5153" />
    <sodipodi:guide
       position="343.49995,336.00002"
       orientation="1,0"
       id="guide5155" />
  </sodipodi:namedview>
  <!-- Generator: Sketch 52.6 (67491) - http://www.bohemiancoding.com/sketch -->
  <title
     id="title4">Group 5</title>
  <desc
     id="desc6">Created with Sketch.</desc>
  <g
     id="g4168"
     transform="translate(31.486115,-340.53032)">
    <g
       id="g4180"
       transform="translate(-61.601576,136.90331)">
      <rect
         ry="11.666677"
         rx="11.666672"
         y="340"
         x="70.999992"
         height="35"
         width="35"
         id="rect4360"
         style="color:#000000;clip-rule:nonzero;display:inline;overflow:visible;visibility:visible;opacity:1;isolation:auto;mix-blend-mode:normal;color-interpolation:sRGB;color-interpolation-filters:linearRGB;solid-color:#000000;solid-opacity:1;fill:#546e7a;fill-opacity:1;fill-rule:nonzero;stroke:none;stroke-width:1.33495462;stroke-linecap:butt;stroke-linejoin:miter;stroke-miterlimit:4;stroke-dasharray:none;stroke-dashoffset:0;stroke-opacity:1;color-rendering:auto;image-rendering:auto;shape-rendering:auto;text-rendering:auto;enable-background:accumulate" />
      <rect
         style="color:#000000;clip-rule:nonzero;display:inline;overflow:visible;visibility:visible;opacity:1;isolation:auto;mix-blend-mode:normal;color-interpolation:sRGB;color-interpolation-filters:linearRGB;solid-color:#000000;solid-opacity:1;fill:#546e7a;fill-opacity:1;fill-rule:nonzero;stroke:none;stroke-width:1.33495462;stroke-linecap:butt;stroke-linejoin:miter;stroke-miterlimit:4;stroke-dasharray:none;stroke-dashoffset:0;stroke-opacity:1;color-rendering:auto;image-rendering:auto;shape-rendering:auto;text-rendering:auto;enable-background:accumulate"
         id="rect4615"
         width="35"
         height="35"
         x="121.01387"
         y="340.03027"
         rx="11.666672"
         ry="11.666677" />
      <rect
         ry="11.666677"
         rx="11.666672"
         y="290.0303"
         x="121.01387"
         height="35"
         width="35"
         id="rect4619"
         style="color:#000000;clip-rule:nonzero;display:inline;overflow:visible;visibility:visible;opacity:1;isolation:auto;mix-blend-mode:normal;color-interpolation:sRGB;color-interpolation-filters:linearRGB;solid-color:#000000;solid-opacity:1;fill:#546e7a;fill-opacity:1;fill-rule:nonzero;stroke:none;stroke-width:1.33495462;stroke-linecap:butt;stroke-linejoin:miter;stroke-miterlimit:4;stroke-dasharray:none;stroke-dashoffset:0;stroke-opacity:1;color-rendering:auto;image-rendering:auto;shape-rendering:auto;text-rendering:auto;enable-background:accumulate" />
      <rect
         style="color:#000000;clip-rule:nonzero;display:inline;overflow:visible;visibility:visible;opacity:1;isolation:auto;mix-blend-mode:normal;color-interpolation:sRGB;color-interpolation-filters:linearRGB;solid-color:#000000;solid-opacity:1;fill:#546e7a;fill-opacity:1;fill-rule:nonzero;stroke:none;stroke-width:1.33495462;stroke-linecap:butt;stroke-linejoin:miter;stroke-miterlimit:4;stroke-dasharray:none;stroke-dashoffset:0;stroke-opacity:1;color-rendering:auto;image-rendering:auto;shape-rendering:auto;text-rendering:auto;enable-background:accumulate"
         id="rect4621"
         width="35"
         height="35"
         x="171.01387"
         y="290.0303"
         rx="11.666672"
         ry="11.666677" />
      <rect
         ry="11.666677"
         rx="11.666672"
         y="290.0303"
         x="221.01387"
         height="35"
         width="35"
         id="rect4623"
         style="color:#000000;clip-rule:nonzero;display:inline;overflow:visible;visibility:visible;opacity:1;isolation:auto;mix-blend-mode:normal;color-interpolation:sRGB;color-interpolation-filters:linearRGB;solid-color:#000000;solid-opacity:1;fill:#35ccd5;fill-opacity:1;fill-rule:nonzero;stroke:none;stroke-width:1;stroke-linecap:butt;stroke-linejoin:miter;stroke-miterlimit:4;stroke-dasharray:none;stroke-dashoffset:0;stroke-opacity:1;color-rendering:auto;image-rendering:auto;shape-rendering:auto;text-rendering:auto;enable-background:accumulate" />
      <rect
         style="color:#000000;clip-rule:nonzero;display:inline;overflow:visible;visibility:visible;opacity:1;isolation:auto;mix-blend-mode:normal;color-interpolation:sRGB;color-interpolation-filters:linearRGB;solid-color:#000000;solid-opacity:1;fill:#35ccd5;fill-opacity:1;fill-rule:nonzero;stroke:none;stroke-width:1;stroke-linecap:butt;stroke-linejoin:miter;stroke-miterlimit:4;stroke-dasharray:none;stroke-dashoffset:0;stroke-opacity:1;color-rendering:auto;image-rendering:auto;shape-rendering:auto;text-rendering:auto;enable-background:accumulate"
         id="rect4639"
         width="35"
         height="35"
         x="221.01387"
         y="240.03027"
         rx="11.666672"
         ry="11.666677" />
      <rect
         ry="11.666677"
         rx="11.666672"
         y="240.03027"
         x="271.01385"
         height="35"
         width="35"
         id="rect4641"
         style="color:#000000;clip-rule:nonzero;display:inline;overflow:visible;visibility:visible;opacity:1;isolation:auto;mix-blend-mode:normal;color-interpolation:sRGB;color-interpolation-filters:linearRGB;solid-color:#000000;solid-opacity:1;fill:#35ccd5;fill-opacity:1;fill-rule:nonzero;stroke:none;stroke-width:1;stroke-linecap:butt;stroke-linejoin:miter;stroke-miterlimit:4;stroke-dasharray:none;stroke-dashoffset:0;stroke-opacity:1;color-rendering:auto;image-rendering:auto;shape-rendering:auto;text-rendering:auto;enable-background:accumulate" />
      <rect
         ry="0"
         rx="0"
         y="304.99997"
         x="121.01387"
         height="54.999996"
         width="35"
         id="rect4645"
         style="color:#000000;clip-rule:nonzero;display:inline;overflow:visible;visibility:visible;opacity:1;isolation:auto;mix-blend-mode:normal;color-interpolation:sRGB;color-interpolation-filters:linearRGB;solid-color:#000000;solid-opacity:1;fill:#546e7a;fill-opacity:1;fill-rule:nonzero;stroke:none;stroke-width:1.33495462;stroke-linecap:butt;stroke-linejoin:miter;stroke-miterlimit:4;stroke-dasharray:none;stroke-dashoffset:0;stroke-opacity:1;color-rendering:auto;image-rendering:auto;shape-rendering:auto;text-rendering:auto;enable-background:accumulate" />
      <rect
         style="color:#000000;clip-rule:nonzero;display:inline;overflow:visible;visibility:visible;opacity:1;isolation:auto;mix-blend-mode:normal;color-interpolation:sRGB;color-interpolation-filters:linearRGB;solid-color:#000000;solid-opacity:1;fill:#35ccd5;fill-opacity:1;fill-rule:nonzero;stroke:none;stroke-width:1;stroke-linecap:butt;stroke-linejoin:miter;stroke-miterlimit:4;stroke-dasharray:none;stroke-dashoffset:0;stroke-opacity:1;color-rendering:auto;image-rendering:auto;shape-rendering:auto;text-rendering:auto;enable-background:accumulate"
         id="rect4647"
         width="35"
         height="52.530323"
         x="221.01387"
         y="254.99997"
         rx="0"
         ry="0" />
    </g>
    <path
       style="fill:#546e7a;fill-rule:evenodd;stroke:none;stroke-width:1"
       inkscape:connector-curvature="0"
       id="SciPipe"
       d="m 316.93842,490.40733 c 0,-4.55756 -1.60078,-8.16397 -4.80236,-10.81941 -3.20158,-2.65543 -9.0585,-5.17898 -17.57092,-7.57076 -8.51245,-2.39176 -14.72718,-5.00007 -18.6444,-7.82497 -5.57453,-3.99257 -8.36172,-9.22801 -8.36172,-15.70651 0,-6.29015 2.58946,-11.40319 7.76849,-15.33925 5.17902,-3.93602 11.79866,-5.90403 19.85911,-5.90403 5.46151,0 10.34855,1.05462 14.66126,3.16389 4.31272,2.10926 7.65548,5.04714 10.02844,8.81369 2.37292,3.76658 3.55938,7.96622 3.55938,12.59908 l -7.00578,0 c 0,-5.61217 -1.92092,-10.12256 -5.76281,-13.5313 -3.8419,-3.40871 -9.00202,-5.11308 -15.48049,-5.11308 -6.29016,0 -11.29962,1.40302 -15.02851,4.20913 -3.72892,2.80609 -5.59333,6.46901 -5.59333,10.98889 0,4.18086 1.6761,7.58956 5.02833,10.22615 3.35225,2.63661 8.71952,4.96242 16.10199,6.97754 7.38246,2.01512 12.97573,4.10552 16.77995,6.2713 3.80423,2.16577 6.66678,4.75522 8.58771,7.76849 1.92096,3.01325 2.88142,6.5726 2.88142,10.67814 0,6.47849 -2.58948,11.67627 -7.76849,15.5935 -5.17903,3.91722 -12.00583,5.87578 -20.48059,5.87578 -5.80052,0 -11.12071,-1.0358 -15.96075,-3.10734 -4.84002,-2.07163 -8.51238,-4.97185 -11.01713,-8.70074 -2.50476,-3.7289 -3.75713,-8.00389 -3.75713,-12.82511 l 6.94927,0 c 0,5.80053 2.16574,10.37685 6.49729,13.72907 4.33155,3.35224 10.09431,5.02834 17.28845,5.02834 6.40315,0 11.54442,-1.41244 15.424,-4.23735 3.87955,-2.82495 5.81932,-6.57262 5.81932,-11.24314 z m 42.93581,15.64999 c 4.70821,0 8.65362,-1.3277 11.83636,-3.98312 3.18274,-2.65542 4.90593,-6.09237 5.16957,-10.31092 l 6.49731,0 c -0.18855,3.72889 -1.35596,7.12817 -3.5029,10.19792 -2.14693,3.06974 -5.00006,5.4709 -8.55947,7.20352 -3.5594,1.73262 -7.37298,2.59888 -11.44087,2.59888 -8.02277,0 -14.37875,-2.78716 -19.06814,-8.3617 -4.68937,-5.57451 -7.03399,-13.06985 -7.03399,-22.48626 l 0,-2.03394 c 0,-6.02651 1.0546,-11.35611 3.16386,-15.98899 2.10929,-4.63286 5.1319,-8.21103 9.06797,-10.73465 3.93606,-2.5236 8.54061,-3.78536 13.8138,-3.78536 6.70446,0 12.23185,1.99624 16.58221,5.9888 4.35037,3.99256 6.67623,9.24682 6.97753,15.76298 l -6.49731,0 c -0.30125,-4.78353 -2.02449,-8.6442 -5.16957,-11.58212 -3.1451,-2.93792 -7.10932,-4.40687 -11.89286,-4.40687 -6.10183,0 -10.8382,2.20342 -14.20929,6.6103 -3.37107,4.40687 -5.05659,10.58394 -5.05659,18.5314 l 0,1.97742 c 0,7.79681 1.68552,13.8797 5.05659,18.24893 3.37109,4.3692 8.12629,6.55378 14.26579,6.55378 z m 44.51776,4.57635 -6.77978,0 0,-61.13102 6.77978,0 0,61.13102 z m -7.96623,-78.81495 c 0,-1.28062 0.41421,-2.36348 1.24297,-3.24862 0.82857,-0.88516 1.95857,-1.3277 3.38985,-1.3277 1.43132,0 2.57068,0.44257 3.41815,1.3277 0.84748,0.88517 1.27124,1.968 1.27124,3.24862 0,1.28063 -0.4236,2.35409 -1.27124,3.2204 -0.84752,0.86633 -1.98683,1.29947 -3.41815,1.29947 -1.43128,0 -2.56126,-0.43318 -3.38985,-1.29947 -0.82857,-0.86633 -1.24297,-1.93977 -1.24297,-3.2204 z m 34.80005,45.31155 0,33.5034 -6.94925,0 0,-82.2613 28.02306,0 c 8.55016,0 15.3016,2.18456 20.25463,6.55376 4.95299,4.36923 7.42955,10.37679 7.42955,18.02291 0,7.72146 -2.3823,13.68196 -7.14704,17.88168 -4.76473,4.1997 -11.66687,6.29955 -20.70661,6.29955 l -20.90434,0 z m 0,-5.8758 21.07381,0 c 6.74219,0 11.88342,-1.60078 15.42401,-4.80239 3.54056,-3.20155 5.31083,-7.66488 5.31083,-13.39004 0,-5.68751 -1.76082,-10.21674 -5.28254,-13.58781 -3.52175,-3.37107 -8.52177,-5.09426 -15.00031,-5.16957 l -21.5258,0 0,36.94981 z m 70.22451,39.3792 -6.77983,0 0,-61.13102 6.77983,0 0,61.13102 z m -7.96629,-78.81495 c 0,-1.28062 0.4136,-2.36348 1.24293,-3.24862 0.82858,-0.88516 1.95862,-1.3277 3.3899,-1.3277 1.43136,0 2.57068,0.44257 3.41818,1.3277 0.84746,0.88517 1.27121,1.968 1.27121,3.24862 0,1.28063 -0.42393,2.35409 -1.27121,3.2204 -0.84754,0.86633 -1.98682,1.29947 -3.41818,1.29947 -1.43128,0 -2.56125,-0.43318 -3.3899,-1.29947 -0.82856,-0.86633 -1.24293,-1.93977 -1.24293,-3.2204 z m 75.42232,48.87094 c 0,9.52938 -2.10933,17.09065 -6.32782,22.68399 -4.21862,5.59336 -9.86837,8.38995 -16.94953,8.38995 -8.36172,0 -14.76477,-2.93784 -19.20942,-8.81367 l 0,31.18698 -6.7232,0 0,-84.63426 6.27132,0 0.33953,8.64422 c 4.40685,-6.51615 10.79103,-9.77417 19.15282,-9.77417 7.3072,0 13.04166,2.76838 17.2037,8.30522 4.16212,5.53686 6.24306,13.22052 6.24306,23.05128 l 0,0.96046 z m -6.77982,-1.18649 c 0,-7.79678 -1.60077,-13.95502 -4.80239,-18.47489 -3.20157,-4.51986 -7.66487,-6.77977 -13.39004,-6.77977 -4.14323,0 -7.70253,0.99813 -10.67817,2.99438 -2.97556,1.9963 -5.25431,4.89651 -6.83635,8.70073 l 0,29.32256 c 1.6197,3.50289 3.93611,6.1771 6.94935,8.02272 3.01329,1.84561 6.57261,2.76842 10.67821,2.76842 5.68746,0 10.1225,-2.26933 13.30522,-6.80803 3.18283,-4.53872 4.77417,-11.12068 4.77417,-19.74612 z m 45.36522,32.26043 c -5.1979,0 -9.89659,-1.28056 -14.09632,-3.84183 -4.19971,-2.56127 -7.46717,-6.13004 -9.80238,-10.70642 -2.33531,-4.57638 -3.50288,-9.70824 -3.50288,-15.39573 l 0,-2.42943 c 0,-5.87584 1.13933,-11.16781 3.41809,-15.876 2.27879,-4.7082 5.45205,-8.4088 9.51993,-11.10188 4.06791,-2.6931 8.47476,-4.03961 13.22059,-4.03961 7.42012,0 13.3053,2.53295 17.65568,7.59898 4.35036,5.06604 6.52555,11.98699 6.52555,20.7631 l 0,3.78536 -43.61658,0 0,1.29948 c 0,6.93046 1.98682,12.70263 5.96053,17.31668 3.97374,4.61402 8.97373,6.92102 15.00026,6.92102 3.6159,0 6.80806,-0.65915 9.57646,-1.97744 2.76844,-1.31831 5.28256,-3.42754 7.54251,-6.32779 l 4.23737,3.2204 c -4.97189,7.1941 -12.18473,10.79111 -21.63881,10.79111 z m -1.24297,-57.62811 c -5.0849,0 -9.36924,1.86443 -12.85335,5.59333 -3.48402,3.72892 -5.60274,8.73835 -6.35602,15.02851 l 36.66727,0 0,-0.73451 c -0.18846,-5.87582 -1.86438,-10.65928 -5.02829,-14.35051 -3.16391,-3.69124 -7.30705,-5.53683 -12.42961,-5.53683 z" />
  </g>
</svg>
